<?xml version="1.0" encoding="UTF-8" standalone="no"?>
<svg
   xmlns:dc="http://purl.org/dc/elements/1.1/"
   xmlns:cc="http://creativecommons.org/ns#"
   xmlns:rdf="http://www.w3.org/1999/02/22-rdf-syntax-ns#"
   xmlns:svg="http://www.w3.org/2000/svg"
   xmlns="http://www.w3.org/2000/svg"
   xmlns:sodipodi="http://sodipodi.sourceforge.net/DTD/sodipodi-0.dtd"
   xmlns:inkscape="http://www.inkscape.org/namespaces/inkscape"
   version="1.1"
   id="svg78"
   width="11in"
   height="8.5in"
   viewBox="0 0 1056 816"
   sodipodi:docname="ijkkg_logo_traditional.svg"
   inkscape:version="1.0 (4035a4f, 2020-05-01)"
   inkscape:export-filename="/Users/aaron/Downloads/ijkkg_logo_traditional.png"
   inkscape:export-xdpi="96"
   inkscape:export-ydpi="96">
  <metadata
     id="metadata84">
    <rdf:RDF>
      <cc:Work
         rdf:about="">
        <dc:format>image/svg+xml</dc:format>
        <dc:type
           rdf:resource="http://purl.org/dc/dcmitype/StillImage" />
        <dc:title />
      </cc:Work>
    </rdf:RDF>
  </metadata>
  <defs
     id="defs82" />
  <sodipodi:namedview
     units="in"
     inkscape:document-rotation="0"
     pagecolor="#ffffff"
     bordercolor="#666666"
     borderopacity="1"
     objecttolerance="10"
     gridtolerance="10"
     guidetolerance="10"
     inkscape:pageopacity="0"
     inkscape:pageshadow="2"
     inkscape:window-width="2048"
     inkscape:window-height="1152"
     id="namedview80"
     showgrid="false"
     inkscape:zoom="1.0822434"
     inkscape:cx="630.30208"
     inkscape:cy="416.45225"
     inkscape:window-x="3440"
     inkscape:window-y="0"
     inkscape:window-maximized="0"
     inkscape:current-layer="g86"
     showguides="true"
     inkscape:guide-bbox="true"
     fit-margin-top="0"
     fit-margin-left="0"
     fit-margin-right="0"
     fit-margin-bottom="0" />
  <g
     inkscape:groupmode="layer"
     inkscape:label="Image"
     id="g86"
     transform="translate(-23.977857,-15.326468)">
    <path
       sodipodi:nodetypes="cccc"
       id="path1200"
       d="m 482.3196,800.95632 c -0.0299,0.17803 -182.83589,-53.73233 -252.62953,-167.76689 l -35.25063,-5.22233 c 0,0 75.72359,120.76604 287.88016,172.98922 z"
       style="fill:#e6e6e6;stroke:#000000;stroke-width:2.64566929;stroke-linecap:butt;stroke-linejoin:miter;stroke-miterlimit:4;stroke-dasharray:none;stroke-opacity:1" />
    <path
       sodipodi:nodetypes="cccc"
       id="path1202"
       d="m 482.3196,800.95632 c 0,0 -213.60853,-56.48522 -289.33733,-178.09954 l -32.41208,0.5736 C 226.779,730.25254 482.3196,800.95632 482.3196,800.95632 Z"
       style="fill:#f9f9f9;stroke:#000000;stroke-width:2.64566929;stroke-linecap:butt;stroke-linejoin:miter;stroke-miterlimit:4;stroke-dasharray:none;stroke-opacity:1" />
    <path
       sodipodi:nodetypes="cccccccc"
       id="path1204"
       d="m 229.69007,633.18943 -12.70279,-1.60873 -11.50021,-30.83954 -67.84031,-9.33025 22.92343,32.01947 32.41208,-0.5736 3.07275,4.99491 z"
       style="fill:#f9f9f9;fill-opacity:1;stroke:#000000;stroke-width:2.64566929;stroke-linecap:butt;stroke-linejoin:miter;stroke-miterlimit:4;stroke-dasharray:none;stroke-opacity:1" />
    <path
       sodipodi:nodetypes="ccccc"
       id="path1206"
       d="m 201.24113,599.40278 -11.37121,-30.18671 -67.89011,-15.01416 15.66695,37.209 z"
       style="fill:#f9f9f9;fill-opacity:1;stroke:#000000;stroke-width:2.64566929;stroke-linecap:butt;stroke-linejoin:miter;stroke-miterlimit:4;stroke-dasharray:none;stroke-opacity:1" />
    <path
       sodipodi:nodetypes="cssccc"
       id="path1208"
       d="m 189.86992,569.21607 c 0,0 -66.52479,-112.48339 23.56048,-305.56348 0,0 -8.9448,-14.82953 -22.32422,-35.14698 -8.90136,-13.51724 -19.76561,-29.46359 -31.26458,-45.08812 -56.22689,141.87292 -71.589394,249.80077 -16.31973,374.70116 z"
       style="fill:#d40000;fill-opacity:1;stroke:#000000;stroke-width:2.64566929;stroke-linecap:butt;stroke-linejoin:miter;stroke-miterlimit:4;stroke-dasharray:none;stroke-opacity:1" />
    <path
       sodipodi:nodetypes="cccsccc"
       id="path1210"
       d="M 191.82829,227.15439 202.27292,207.5707 150.70255,97.902073 c 0,0 -119.780137,242.561717 -28.72274,456.299837 0,0 0,0 21.54206,3.91674 C 115.71844,493.68327 76.60294,378.35962 159.8416,183.41749 Z"
       style="fill:#d40000;fill-opacity:1;stroke:#000000;stroke-width:2.64566929;stroke-linecap:butt;stroke-linejoin:miter;stroke-miterlimit:4;stroke-dasharray:none;stroke-opacity:1" />
    <path
       style="fill:#e6e6e6;stroke:#000000;stroke-width:2.64566929;stroke-linecap:butt;stroke-linejoin:miter;stroke-miterlimit:4;stroke-dasharray:none;stroke-opacity:1"
       d="m 637.6749,802.2619 c 0.03,0.17803 182.8359,-53.73233 252.62953,-167.76689 l 35.25063,-5.22233 c 0,0 -75.72358,120.76604 -287.88016,172.98922 z"
       id="path1214"
       sodipodi:nodetypes="cccc" />
    <path
       style="fill:#f9f9f9;stroke:#000000;stroke-width:2.64566929;stroke-linecap:butt;stroke-linejoin:miter;stroke-miterlimit:4;stroke-dasharray:none;stroke-opacity:1"
       d="m 637.6749,802.2619 c 0,0 213.60854,-56.48522 289.33734,-178.09954 l 32.41207,0.5736 C 893.21551,731.55812 637.6749,802.2619 637.6749,802.2619 Z"
       id="path1216"
       sodipodi:nodetypes="cccc" />
    <path
       style="fill:#f9f9f9;fill-opacity:1;stroke:#000000;stroke-width:2.64566929;stroke-linecap:butt;stroke-linejoin:miter;stroke-miterlimit:4;stroke-dasharray:none;stroke-opacity:1"
       d="m 890.30443,634.49501 12.7028,-1.60873 11.5002,-30.83954 67.84032,-9.33025 -22.92344,32.01947 -32.41207,-0.5736 -3.07275,4.99491 z"
       id="path1218"
       sodipodi:nodetypes="cccccccc" />
    <path
       style="fill:#f9f9f9;fill-opacity:1;stroke:#000000;stroke-width:2.64566929;stroke-linecap:butt;stroke-linejoin:miter;stroke-miterlimit:4;stroke-dasharray:none;stroke-opacity:1"
       d="m 918.75337,600.70836 11.37122,-30.18671 67.8901,-15.01416 -15.66694,37.209 z"
       id="path1220"
       sodipodi:nodetypes="ccccc" />
    <path
       style="fill:#d40000;fill-opacity:1;stroke:#000000;stroke-width:2.64566929;stroke-linecap:butt;stroke-linejoin:miter;stroke-miterlimit:4;stroke-dasharray:none;stroke-opacity:1"
       d="m 930.12459,570.52165 c 0,0 66.52478,-112.48339 -23.56048,-305.56348 0,0 8.94479,-14.82953 22.32422,-35.14698 8.90136,-13.51724 19.7656,-29.46359 31.26457,-45.08812 56.2269,141.87292 71.5894,249.80077 16.31974,374.70116 z"
       id="path1222"
       sodipodi:nodetypes="cssccc" />
    <path
       style="fill:#d40000;fill-opacity:1;stroke:#000000;stroke-width:2.64566929;stroke-linecap:butt;stroke-linejoin:miter;stroke-miterlimit:4;stroke-dasharray:none;stroke-opacity:1"
       d="M 928.16622,228.45997 917.72158,208.87628 969.29195,99.207653 c 0,0 119.78015,242.561717 28.72274,456.299837 0,0 0,0 -21.54205,3.91674 27.80346,-64.43538 66.91896,-179.75903 -16.31974,-374.70116 z"
       id="path1224"
       sodipodi:nodetypes="cccsccc" />
    <text
       id="text1230"
       y="744.11096"
       x="407.21503"
       style="font-style:normal;font-weight:normal;font-size:96px;line-height:1.25;font-family:sans-serif;letter-spacing:-0.56518199999999996px;fill:#000000;fill-opacity:1;stroke:none;stroke-width:2.64567;stroke-miterlimit:4;stroke-dasharray:none;"
       xml:space="preserve"><tspan
         y="744.11096"
         x="407.21503"
         id="tspan1228"
         sodipodi:role="line"
         style="stroke-width:2.64567;stroke-miterlimit:4;stroke-dasharray:none;font-size:96px;">拳武館</tspan></text>
    <g
       transform="matrix(5.6518166,0,0,5.6518166,-1891.6701,-606.51673)"
       id="g1278">
      <g
         id="g1242">
        <path
           sodipodi:nodetypes="czccc"
           id="path1232"
           d="m 424.77478,120.96836 c 0,0 2.86302,-5.45859 7.67536,-5.45042 4.81233,0.008 7.20586,5.49935 7.20586,5.49935 l -7.20586,38.60315 z"
           style="fill:#000000;stroke:#000000;stroke-width:0.737;stroke-linecap:butt;stroke-linejoin:miter;stroke-miterlimit:4;stroke-dasharray:none;stroke-opacity:1" />
        <path
           style="fill:#000000;stroke:#000000;stroke-width:0.737;stroke-linecap:butt;stroke-linejoin:miter;stroke-miterlimit:4;stroke-dasharray:none;stroke-opacity:1"
           d="m 479.24281,160.24107 c 0,0 5.45859,2.86302 5.45042,7.67536 -0.008,4.81233 -5.49935,7.20586 -5.49935,7.20586 l -38.60315,-7.20586 z"
           id="path1234"
           sodipodi:nodetypes="czccc" />
        <path
           style="fill:#000000;stroke:#000000;stroke-width:0.737;stroke-linecap:butt;stroke-linejoin:miter;stroke-miterlimit:4;stroke-dasharray:none;stroke-opacity:1"
           d="m 460.14583,129.36614 c 0,0 5.88426,-1.83534 9.28132,1.57327 3.39718,3.40849 1.20669,8.98394 1.20669,8.98394 l -32.39186,22.20124 z"
           id="path1236"
           sodipodi:nodetypes="czccc" />
        <path
           style="fill:#000000;stroke:#000000;stroke-width:0.737;stroke-linecap:butt;stroke-linejoin:miter;stroke-miterlimit:4;stroke-dasharray:none;stroke-opacity:1"
           d="m 443.44478,121.59102 c 0,0 4.734,-3.94745 9.1769,-2.0983 4.44295,1.84899 4.55283,7.8383 4.55283,7.8383 l -21.43013,32.9071 z"
           id="path1238"
           sodipodi:nodetypes="czccc" />
        <path
           sodipodi:nodetypes="czccc"
           id="path1240"
           d="m 472.75508,142.92948 c 0,0 6.1387,0.55617 7.97275,5.00532 1.83422,4.44907 -2.32316,8.76185 -2.32316,8.76185 l -38.42223,8.11545 z"
           style="fill:#000000;stroke:#000000;stroke-width:0.737;stroke-linecap:butt;stroke-linejoin:miter;stroke-miterlimit:4;stroke-dasharray:none;stroke-opacity:1" />
      </g>
      <circle
         style="fill:#000000;fill-opacity:1;stroke:#000000;stroke-width:0.594805;stroke-miterlimit:4;stroke-dasharray:none;stroke-opacity:1"
         id="circle1244"
         cx="432.50046"
         cy="167.88803"
         r="5.5341558" />
      <g
         id="g1256"
         transform="matrix(1,0,0,-1,-2.8427049e-6,335.33448)">
        <path
           style="fill:#000000;stroke:#000000;stroke-width:0.737;stroke-linecap:butt;stroke-linejoin:miter;stroke-miterlimit:4;stroke-dasharray:none;stroke-opacity:1"
           d="m 424.77478,120.96836 c 0,0 2.86302,-5.45859 7.67536,-5.45042 4.81233,0.008 7.20586,5.49935 7.20586,5.49935 l -7.20586,38.60315 z"
           id="path1246"
           sodipodi:nodetypes="czccc" />
        <path
           sodipodi:nodetypes="czccc"
           id="path1248"
           d="m 479.24281,160.24107 c 0,0 5.45859,2.86302 5.45042,7.67536 -0.008,4.81233 -5.49935,7.20586 -5.49935,7.20586 l -38.60315,-7.20586 z"
           style="fill:#000000;stroke:#000000;stroke-width:0.737;stroke-linecap:butt;stroke-linejoin:miter;stroke-miterlimit:4;stroke-dasharray:none;stroke-opacity:1" />
        <path
           sodipodi:nodetypes="czccc"
           id="path1250"
           d="m 460.14583,129.36614 c 0,0 5.88426,-1.83534 9.28132,1.57327 3.39718,3.40849 1.20669,8.98394 1.20669,8.98394 l -32.39186,22.20124 z"
           style="fill:#000000;stroke:#000000;stroke-width:0.737;stroke-linecap:butt;stroke-linejoin:miter;stroke-miterlimit:4;stroke-dasharray:none;stroke-opacity:1" />
        <path
           sodipodi:nodetypes="czccc"
           id="path1252"
           d="m 443.44478,121.59102 c 0,0 4.734,-3.94745 9.1769,-2.0983 4.44295,1.84899 4.55283,7.8383 4.55283,7.8383 l -21.43013,32.9071 z"
           style="fill:#000000;stroke:#000000;stroke-width:0.737;stroke-linecap:butt;stroke-linejoin:miter;stroke-miterlimit:4;stroke-dasharray:none;stroke-opacity:1" />
        <path
           style="fill:#000000;stroke:#000000;stroke-width:0.737;stroke-linecap:butt;stroke-linejoin:miter;stroke-miterlimit:4;stroke-dasharray:none;stroke-opacity:1"
           d="m 472.75508,142.92948 c 0,0 6.1387,0.55617 7.97275,5.00532 1.83422,4.44907 -2.32316,8.76185 -2.32316,8.76185 l -38.42223,8.11545 z"
           id="path1254"
           sodipodi:nodetypes="czccc" />
      </g>
      <g
         id="g1268"
         transform="matrix(-1,0,0,1,864.90028,0)">
        <path
           style="fill:#000000;stroke:#000000;stroke-width:0.737;stroke-linecap:butt;stroke-linejoin:miter;stroke-miterlimit:4;stroke-dasharray:none;stroke-opacity:1"
           d="m 424.77478,120.96836 c 0,0 2.86302,-5.45859 7.67536,-5.45042 4.81233,0.008 7.20586,5.49935 7.20586,5.49935 l -7.20586,38.60315 z"
           id="path1258"
           sodipodi:nodetypes="czccc" />
        <path
           sodipodi:nodetypes="czccc"
           id="path1260"
           d="m 479.24281,160.24107 c 0,0 5.45859,2.86302 5.45042,7.67536 -0.008,4.81233 -5.49935,7.20586 -5.49935,7.20586 l -38.60315,-7.20586 z"
           style="fill:#000000;stroke:#000000;stroke-width:0.737;stroke-linecap:butt;stroke-linejoin:miter;stroke-miterlimit:4;stroke-dasharray:none;stroke-opacity:1" />
        <path
           sodipodi:nodetypes="czccc"
           id="path1262"
           d="m 460.14583,129.36614 c 0,0 5.88426,-1.83534 9.28132,1.57327 3.39718,3.40849 1.20669,8.98394 1.20669,8.98394 l -32.39186,22.20124 z"
           style="fill:#000000;stroke:#000000;stroke-width:0.737;stroke-linecap:butt;stroke-linejoin:miter;stroke-miterlimit:4;stroke-dasharray:none;stroke-opacity:1" />
        <path
           sodipodi:nodetypes="czccc"
           id="path1264"
           d="m 443.44478,121.59102 c 0,0 4.734,-3.94745 9.1769,-2.0983 4.44295,1.84899 4.55283,7.8383 4.55283,7.8383 l -21.43013,32.9071 z"
           style="fill:#000000;stroke:#000000;stroke-width:0.737;stroke-linecap:butt;stroke-linejoin:miter;stroke-miterlimit:4;stroke-dasharray:none;stroke-opacity:1" />
        <path
           style="fill:#000000;stroke:#000000;stroke-width:0.737;stroke-linecap:butt;stroke-linejoin:miter;stroke-miterlimit:4;stroke-dasharray:none;stroke-opacity:1"
           d="m 472.75508,142.92948 c 0,0 6.1387,0.55617 7.97275,5.00532 1.83422,4.44907 -2.32316,8.76185 -2.32316,8.76185 l -38.42223,8.11545 z"
           id="path1266"
           sodipodi:nodetypes="czccc" />
      </g>
      <path
         sodipodi:nodetypes="czccc"
         id="path1270"
         d="m 385.91223,175.59179 c 0,0 -5.45859,-2.86302 -5.45042,-7.67536 0.008,-4.81233 5.49935,-7.20586 5.49935,-7.20586 l 38.60315,7.20586 z"
         style="fill:#000000;stroke:#000000;stroke-width:0.737;stroke-linecap:butt;stroke-linejoin:miter;stroke-miterlimit:4;stroke-dasharray:none;stroke-opacity:1" />
      <path
         sodipodi:nodetypes="czccc"
         id="path1272"
         d="m 405.00921,206.46672 c 0,0 -5.88426,1.83534 -9.28132,-1.57327 -3.39718,-3.40849 -1.20669,-8.98394 -1.20669,-8.98394 l 32.39186,-22.20124 z"
         style="fill:#000000;stroke:#000000;stroke-width:0.737;stroke-linecap:butt;stroke-linejoin:miter;stroke-miterlimit:4;stroke-dasharray:none;stroke-opacity:1" />
      <path
         sodipodi:nodetypes="czccc"
         id="path1274"
         d="m 421.87225,213.78508 c 0,0 -4.734,3.94745 -9.1769,2.0983 -4.44295,-1.84899 -4.55283,-7.8383 -4.55283,-7.8383 l 21.43013,-32.9071 z"
         style="fill:#000000;stroke:#000000;stroke-width:0.737;stroke-linecap:butt;stroke-linejoin:miter;stroke-miterlimit:4;stroke-dasharray:none;stroke-opacity:1" />
      <path
         style="fill:#000000;stroke:#000000;stroke-width:0.737;stroke-linecap:butt;stroke-linejoin:miter;stroke-miterlimit:4;stroke-dasharray:none;stroke-opacity:1"
         d="m 392.39996,192.90338 c 0,0 -6.1387,-0.55617 -7.97275,-5.00532 -1.83422,-4.44907 2.32316,-8.76185 2.32316,-8.76185 l 38.42223,-8.11545 z"
         id="path1276"
         sodipodi:nodetypes="czccc" />
    </g>
  </g>
</svg>
