<?xml version="1.0" encoding="UTF-8" standalone="no"?>
<svg
   xmlns:dc="http://purl.org/dc/elements/1.1/"
   xmlns:cc="http://creativecommons.org/ns#"
   xmlns:rdf="http://www.w3.org/1999/02/22-rdf-syntax-ns#"
   xmlns:svg="http://www.w3.org/2000/svg"
   xmlns="http://www.w3.org/2000/svg"
   xmlns:sodipodi="http://sodipodi.sourceforge.net/DTD/sodipodi-0.dtd"
   xmlns:inkscape="http://www.inkscape.org/namespaces/inkscape"
   version="1.1"
   id="svg78"
   width="4.9182129in"
   height="3.9814501in"
   viewBox="0 0 472.14844 382.21921"
   sodipodi:docname="logo.svg"
   inkscape:version="1.0 (4035a4f, 2020-05-01)"
   inkscape:export-filename="/Users/aaron/Downloads/ijkkg_logo_traditional.png"
   inkscape:export-xdpi="96"
   inkscape:export-ydpi="96">
  <metadata
     id="metadata84">
    <rdf:RDF>
      <cc:Work
         rdf:about="">
        <dc:format>image/svg+xml</dc:format>
        <dc:type
           rdf:resource="http://purl.org/dc/dcmitype/StillImage" />
        <dc:title />
      </cc:Work>
    </rdf:RDF>
  </metadata>
  <defs
     id="defs82" />
  <sodipodi:namedview
     units="in"
     inkscape:document-rotation="0"
     pagecolor="#ffffff"
     bordercolor="#666666"
     borderopacity="1"
     objecttolerance="10"
     gridtolerance="10"
     guidetolerance="10"
     inkscape:pageopacity="0"
     inkscape:pageshadow="2"
     inkscape:window-width="2048"
     inkscape:window-height="1056"
     id="namedview80"
     showgrid="false"
     inkscape:zoom="1.0822434"
     inkscape:cx="551.18649"
     inkscape:cy="194.02006"
     inkscape:window-x="0"
     inkscape:window-y="23"
     inkscape:window-maximized="0"
     inkscape:current-layer="g86"
     showguides="true"
     inkscape:guide-bbox="true"
     fit-margin-top="0"
     fit-margin-left="0"
     fit-margin-right="0"
     fit-margin-bottom="0" />
  <g
     inkscape:groupmode="layer"
     inkscape:label="Image"
     id="g86"
     transform="translate(-174.33378,-107.12324)">
    <g
       id="g2008"
       transform="translate(-70.003773,10.782854)"
       inkscape:export-filename="/Users/aaron/Desktop/ijkkg_on_black.png"
       inkscape:export-xdpi="96"
       inkscape:export-ydpi="96">
      <g
         style="fill:#ffffff;stroke:#ffffff;stroke-width:10;stroke-miterlimit:4;stroke-dasharray:none;stroke-opacity:1"
         id="g1932">
        <path
           style="fill:#ffffff;stroke:#ffffff;stroke-width:10;stroke-linecap:butt;stroke-linejoin:miter;stroke-miterlimit:4;stroke-dasharray:none;stroke-opacity:1"
           d="m 442.41123,472.99022 c -0.0146,0.0871 -89.44476,-26.28628 -123.58836,-82.07288 l -17.24488,-2.55481 c 0,0 37.04458,59.0797 140.83324,84.62769 z"
           id="path1896"
           sodipodi:nodetypes="cccc" />
        <path
           style="fill:#ffffff;stroke:#ffffff;stroke-width:10;stroke-linecap:butt;stroke-linejoin:miter;stroke-miterlimit:4;stroke-dasharray:none;stroke-opacity:1"
           d="m 442.41123,472.99022 c 0,0 -104.49898,-27.63301 -141.5461,-87.12769 l -15.85625,0.2806 c 32.38988,52.25824 157.40235,86.84709 157.40235,86.84709 z"
           id="path1898"
           sodipodi:nodetypes="cccc" />
        <path
           style="fill:#ffffff;fill-opacity:1;stroke:#ffffff;stroke-width:10;stroke-linecap:butt;stroke-linejoin:miter;stroke-miterlimit:4;stroke-dasharray:none;stroke-opacity:1"
           d="m 318.82287,390.91734 -6.2143,-0.78701 -5.62599,-15.08694 -33.18801,-4.56443 11.21431,15.66417 15.85625,-0.2806 1.50322,2.44354 z"
           id="path1900"
           sodipodi:nodetypes="cccccccc" />
        <path
           style="fill:#ffffff;fill-opacity:1;stroke:#ffffff;stroke-width:10;stroke-linecap:butt;stroke-linejoin:miter;stroke-miterlimit:4;stroke-dasharray:none;stroke-opacity:1"
           d="m 304.90543,374.38864 -5.56288,-14.76757 -33.21238,-7.34505 7.6644,18.20294 z"
           id="path1902"
           sodipodi:nodetypes="ccccc" />
        <path
           style="fill:#ffffff;fill-opacity:1;stroke:#ffffff;stroke-width:10;stroke-linecap:butt;stroke-linejoin:miter;stroke-miterlimit:4;stroke-dasharray:none;stroke-opacity:1"
           d="m 299.34255,359.62107 c 0,0 -32.54445,-55.02776 11.52597,-149.48406 0,0 -4.37587,-7.25473 -10.92119,-17.19417 -4.35461,-6.61275 -9.66949,-14.41383 -15.29487,-22.05747 -27.50664,69.40535 -35.0221,122.2045 -7.98375,183.30675 z"
           id="path1904"
           sodipodi:nodetypes="cssccc" />
        <path
           style="fill:#ffffff;fill-opacity:1;stroke:#ffffff;stroke-width:10;stroke-linecap:butt;stroke-linejoin:miter;stroke-miterlimit:4;stroke-dasharray:none;stroke-opacity:1"
           d="m 300.3006,192.2818 5.1096,-9.58049 -25.22864,-53.65075 c 0,0 -58.59738,118.66309 -14.05139,223.22546 0,0 0,0 10.53854,1.9161 -13.60165,-31.52229 -32.73726,-87.93953 7.98375,-183.30675 z"
           id="path1906"
           sodipodi:nodetypes="cccsccc" />
        <path
           sodipodi:nodetypes="cccc"
           id="path1908"
           d="m 518.41225,473.62891 c 0.0147,0.0871 89.44477,-26.28627 123.58836,-82.07287 l 17.24488,-2.55481 c 0,0 -37.04456,59.0797 -140.83324,84.62768 z"
           style="fill:#ffffff;stroke:#ffffff;stroke-width:10;stroke-linecap:butt;stroke-linejoin:miter;stroke-miterlimit:4;stroke-dasharray:none;stroke-opacity:1" />
        <path
           sodipodi:nodetypes="cccc"
           id="path1910"
           d="m 518.41225,473.62891 c 0,0 104.49899,-27.63301 141.5461,-87.12769 l 15.85624,0.28061 c -32.38986,52.25824 -157.40234,86.84708 -157.40234,86.84708 z"
           style="fill:#ffffff;stroke:#ffffff;stroke-width:10;stroke-linecap:butt;stroke-linejoin:miter;stroke-miterlimit:4;stroke-dasharray:none;stroke-opacity:1" />
        <path
           sodipodi:nodetypes="cccccccc"
           id="path1912"
           d="m 642.00061,391.55604 6.21431,-0.787 5.62599,-15.08695 33.18801,-4.56443 -11.21433,15.66417 -15.85624,-0.28061 -1.5032,2.44355 z"
           style="fill:#ffffff;fill-opacity:1;stroke:#ffffff;stroke-width:10;stroke-linecap:butt;stroke-linejoin:miter;stroke-miterlimit:4;stroke-dasharray:none;stroke-opacity:1" />
        <path
           sodipodi:nodetypes="ccccc"
           id="path1914"
           d="m 655.91805,375.02734 5.56289,-14.76757 33.21242,-7.34505 -7.66444,18.20294 z"
           style="fill:#ffffff;fill-opacity:1;stroke:#ffffff;stroke-width:10;stroke-linecap:butt;stroke-linejoin:miter;stroke-miterlimit:4;stroke-dasharray:none;stroke-opacity:1" />
        <path
           sodipodi:nodetypes="cssccc"
           id="path1916"
           d="m 661.48094,360.25977 c 0,0 32.54452,-55.02776 -11.52597,-149.48406 0,0 4.37587,-7.25472 10.92119,-17.19418 4.35461,-6.61274 9.66949,-14.41381 15.29487,-22.05746 27.50663,69.40535 35.02203,122.2045 7.98374,183.30675 z"
           style="fill:#ffffff;fill-opacity:1;stroke:#ffffff;stroke-width:10;stroke-linecap:butt;stroke-linejoin:miter;stroke-miterlimit:4;stroke-dasharray:none;stroke-opacity:1" />
        <path
           sodipodi:nodetypes="cccsccc"
           id="path1918"
           d="m 660.52289,192.92051 -5.1096,-9.5805 25.22863,-53.65075 c 0,0 58.59744,118.6631 14.05144,223.22546 0,0 0,0 -10.53859,1.9161 13.60169,-31.52229 32.73729,-87.93953 -7.98374,-183.30675 z"
           style="fill:#ffffff;fill-opacity:1;stroke:#ffffff;stroke-width:10;stroke-linecap:butt;stroke-linejoin:miter;stroke-miterlimit:4;stroke-dasharray:none;stroke-opacity:1" />
      </g>
      <path
         style="fill:#e6e6e6;stroke:#000000;stroke-width:1.29428;stroke-linecap:butt;stroke-linejoin:miter;stroke-miterlimit:4;stroke-dasharray:none;stroke-opacity:1"
         d="m 442.41123,472.99022 c -0.0146,0.0871 -89.44476,-26.28628 -123.58836,-82.07288 l -17.24488,-2.55481 c 0,0 37.04458,59.0797 140.83324,84.62769 z"
         id="path1200"
         sodipodi:nodetypes="cccc" />
      <path
         style="fill:#f9f9f9;stroke:#000000;stroke-width:1.29428;stroke-linecap:butt;stroke-linejoin:miter;stroke-miterlimit:4;stroke-dasharray:none;stroke-opacity:1"
         d="m 442.41123,472.99022 c 0,0 -104.49898,-27.63301 -141.5461,-87.12769 l -15.85625,0.2806 c 32.38988,52.25824 157.40235,86.84709 157.40235,86.84709 z"
         id="path1202"
         sodipodi:nodetypes="cccc" />
      <path
         style="fill:#f9f9f9;fill-opacity:1;stroke:#000000;stroke-width:1.29428;stroke-linecap:butt;stroke-linejoin:miter;stroke-miterlimit:4;stroke-dasharray:none;stroke-opacity:1"
         d="m 318.82287,390.91734 -6.2143,-0.78701 -5.62599,-15.08694 -33.18801,-4.56443 11.21431,15.66417 15.85625,-0.2806 1.50322,2.44354 z"
         id="path1204"
         sodipodi:nodetypes="cccccccc" />
      <path
         style="fill:#f9f9f9;fill-opacity:1;stroke:#000000;stroke-width:1.29428;stroke-linecap:butt;stroke-linejoin:miter;stroke-miterlimit:4;stroke-dasharray:none;stroke-opacity:1"
         d="m 304.90543,374.38864 -5.56288,-14.76757 -33.21238,-7.34505 7.6644,18.20294 z"
         id="path1206"
         sodipodi:nodetypes="ccccc" />
      <path
         style="fill:#d40000;fill-opacity:1;stroke:#000000;stroke-width:1.29428;stroke-linecap:butt;stroke-linejoin:miter;stroke-miterlimit:4;stroke-dasharray:none;stroke-opacity:1"
         d="m 299.34255,359.62107 c 0,0 -32.54445,-55.02776 11.52597,-149.48406 0,0 -4.37587,-7.25473 -10.92119,-17.19417 -4.35461,-6.61275 -9.66949,-14.41383 -15.29487,-22.05747 -27.50664,69.40535 -35.0221,122.2045 -7.98375,183.30675 z"
         id="path1208"
         sodipodi:nodetypes="cssccc" />
      <path
         style="fill:#d40000;fill-opacity:1;stroke:#000000;stroke-width:1.29428;stroke-linecap:butt;stroke-linejoin:miter;stroke-miterlimit:4;stroke-dasharray:none;stroke-opacity:1"
         d="m 300.3006,192.2818 5.1096,-9.58049 -25.22864,-53.65075 c 0,0 -58.59738,118.66309 -14.05139,223.22546 0,0 0,0 10.53854,1.9161 -13.60165,-31.52229 -32.73726,-87.93953 7.98375,-183.30675 z"
         id="path1210"
         sodipodi:nodetypes="cccsccc" />
      <path
         sodipodi:nodetypes="cccc"
         id="path1214"
         d="m 518.41225,473.62891 c 0.0147,0.0871 89.44477,-26.28627 123.58836,-82.07287 l 17.24488,-2.55481 c 0,0 -37.04456,59.0797 -140.83324,84.62768 z"
         style="fill:#e6e6e6;stroke:#000000;stroke-width:1.29428;stroke-linecap:butt;stroke-linejoin:miter;stroke-miterlimit:4;stroke-dasharray:none;stroke-opacity:1" />
      <path
         sodipodi:nodetypes="cccc"
         id="path1216"
         d="m 518.41225,473.62891 c 0,0 104.49899,-27.63301 141.5461,-87.12769 l 15.85624,0.28061 c -32.38986,52.25824 -157.40234,86.84708 -157.40234,86.84708 z"
         style="fill:#f9f9f9;stroke:#000000;stroke-width:1.29428;stroke-linecap:butt;stroke-linejoin:miter;stroke-miterlimit:4;stroke-dasharray:none;stroke-opacity:1" />
      <path
         sodipodi:nodetypes="cccccccc"
         id="path1218"
         d="m 642.00061,391.55604 6.21431,-0.787 5.62599,-15.08695 33.18801,-4.56443 -11.21433,15.66417 -15.85624,-0.28061 -1.5032,2.44355 z"
         style="fill:#f9f9f9;fill-opacity:1;stroke:#000000;stroke-width:1.29428;stroke-linecap:butt;stroke-linejoin:miter;stroke-miterlimit:4;stroke-dasharray:none;stroke-opacity:1" />
      <path
         sodipodi:nodetypes="ccccc"
         id="path1220"
         d="m 655.91805,375.02734 5.56289,-14.76757 33.21242,-7.34505 -7.66444,18.20294 z"
         style="fill:#f9f9f9;fill-opacity:1;stroke:#000000;stroke-width:1.29428;stroke-linecap:butt;stroke-linejoin:miter;stroke-miterlimit:4;stroke-dasharray:none;stroke-opacity:1" />
      <path
         sodipodi:nodetypes="cssccc"
         id="path1222"
         d="m 661.48094,360.25977 c 0,0 32.54452,-55.02776 -11.52597,-149.48406 0,0 4.37587,-7.25472 10.92119,-17.19418 4.35461,-6.61274 9.66949,-14.41381 15.29487,-22.05746 27.50663,69.40535 35.02203,122.2045 7.98374,183.30675 z"
         style="fill:#d40000;fill-opacity:1;stroke:#000000;stroke-width:1.29428;stroke-linecap:butt;stroke-linejoin:miter;stroke-miterlimit:4;stroke-dasharray:none;stroke-opacity:1" />
      <path
         sodipodi:nodetypes="cccsccc"
         id="path1224"
         d="m 660.52289,192.92051 -5.1096,-9.5805 25.22863,-53.65075 c 0,0 58.59744,118.6631 14.05144,223.22546 0,0 0,0 -10.53859,1.9161 13.60169,-31.52229 32.73729,-87.93953 -7.98374,-183.30675 z"
         style="fill:#d40000;fill-opacity:1;stroke:#000000;stroke-width:1.29428;stroke-linecap:butt;stroke-linejoin:miter;stroke-miterlimit:4;stroke-dasharray:none;stroke-opacity:1" />
      <text
         xml:space="preserve"
         style="font-style:normal;font-weight:normal;font-size:46.964px;line-height:1.25;font-family:sans-serif;letter-spacing:-0.276492px;fill:#f9f9f9;fill-opacity:1;stroke:none;stroke-width:1.294;stroke-miterlimit:4;stroke-dasharray:none;stroke-opacity:1"
         x="405.66953"
         y="445.181"
         id="text1230"><tspan
           style="font-size:46.964px;fill:#f9f9f9;fill-opacity:1;stroke:none;stroke-width:1.294;stroke-miterlimit:4;stroke-dasharray:none;stroke-opacity:1"
           sodipodi:role="line"
           id="tspan1228"
           x="405.66953"
           y="445.181">拳武館</tspan></text>
      <g
         transform="matrix(2.7649131,0,0,2.7649131,-718.96309,-215.55664)"
         id="g1787"
         style="fill:#ffffff;stroke:#ffffff;stroke-width:5.42513;stroke-miterlimit:4;stroke-dasharray:none;stroke-opacity:1">
        <g
           id="g1751"
           style="fill:#ffffff;stroke:#ffffff;stroke-width:5.42513;stroke-miterlimit:4;stroke-dasharray:none;stroke-opacity:1">
          <path
             sodipodi:nodetypes="czccc"
             id="path1741"
             d="m 424.77478,120.96836 c 0,0 2.86302,-5.45859 7.67536,-5.45042 4.81233,0.008 7.20586,5.49935 7.20586,5.49935 l -7.20586,38.60315 z"
             style="fill:#ffffff;stroke:#ffffff;stroke-width:5.42513;stroke-linecap:butt;stroke-linejoin:miter;stroke-miterlimit:4;stroke-dasharray:none;stroke-opacity:1" />
          <path
             style="fill:#ffffff;stroke:#ffffff;stroke-width:5.42513;stroke-linecap:butt;stroke-linejoin:miter;stroke-miterlimit:4;stroke-dasharray:none;stroke-opacity:1"
             d="m 479.24281,160.24107 c 0,0 5.45859,2.86302 5.45042,7.67536 -0.008,4.81233 -5.49935,7.20586 -5.49935,7.20586 l -38.60315,-7.20586 z"
             id="path1743"
             sodipodi:nodetypes="czccc" />
          <path
             style="fill:#ffffff;stroke:#ffffff;stroke-width:5.42513;stroke-linecap:butt;stroke-linejoin:miter;stroke-miterlimit:4;stroke-dasharray:none;stroke-opacity:1"
             d="m 460.14583,129.36614 c 0,0 5.88426,-1.83534 9.28132,1.57327 3.39718,3.40849 1.20669,8.98394 1.20669,8.98394 l -32.39186,22.20124 z"
             id="path1745"
             sodipodi:nodetypes="czccc" />
          <path
             style="fill:#ffffff;stroke:#ffffff;stroke-width:5.42513;stroke-linecap:butt;stroke-linejoin:miter;stroke-miterlimit:4;stroke-dasharray:none;stroke-opacity:1"
             d="m 443.44478,121.59102 c 0,0 4.734,-3.94745 9.1769,-2.0983 4.44295,1.84899 4.55283,7.8383 4.55283,7.8383 l -21.43013,32.9071 z"
             id="path1747"
             sodipodi:nodetypes="czccc" />
          <path
             sodipodi:nodetypes="czccc"
             id="path1749"
             d="m 472.75508,142.92948 c 0,0 6.1387,0.55617 7.97275,5.00532 1.83422,4.44907 -2.32316,8.76185 -2.32316,8.76185 l -38.42223,8.11545 z"
             style="fill:#ffffff;stroke:#ffffff;stroke-width:5.42513;stroke-linecap:butt;stroke-linejoin:miter;stroke-miterlimit:4;stroke-dasharray:none;stroke-opacity:1" />
        </g>
        <circle
           style="fill:#ffffff;fill-opacity:1;stroke:#ffffff;stroke-width:5.42513;stroke-miterlimit:4;stroke-dasharray:none;stroke-opacity:1"
           id="circle1753"
           cx="432.50046"
           cy="167.88803"
           r="5.5341558" />
        <g
           id="g1765"
           transform="matrix(1,0,0,-1,-2.8427049e-6,335.33448)"
           style="fill:#ffffff;stroke:#ffffff;stroke-width:5.42513;stroke-miterlimit:4;stroke-dasharray:none;stroke-opacity:1">
          <path
             style="fill:#ffffff;stroke:#ffffff;stroke-width:5.42513;stroke-linecap:butt;stroke-linejoin:miter;stroke-miterlimit:4;stroke-dasharray:none;stroke-opacity:1"
             d="m 424.77478,120.96836 c 0,0 2.86302,-5.45859 7.67536,-5.45042 4.81233,0.008 7.20586,5.49935 7.20586,5.49935 l -7.20586,38.60315 z"
             id="path1755"
             sodipodi:nodetypes="czccc" />
          <path
             sodipodi:nodetypes="czccc"
             id="path1757"
             d="m 479.24281,160.24107 c 0,0 5.45859,2.86302 5.45042,7.67536 -0.008,4.81233 -5.49935,7.20586 -5.49935,7.20586 l -38.60315,-7.20586 z"
             style="fill:#ffffff;stroke:#ffffff;stroke-width:5.42513;stroke-linecap:butt;stroke-linejoin:miter;stroke-miterlimit:4;stroke-dasharray:none;stroke-opacity:1" />
          <path
             sodipodi:nodetypes="czccc"
             id="path1759"
             d="m 460.14583,129.36614 c 0,0 5.88426,-1.83534 9.28132,1.57327 3.39718,3.40849 1.20669,8.98394 1.20669,8.98394 l -32.39186,22.20124 z"
             style="fill:#ffffff;stroke:#ffffff;stroke-width:5.42513;stroke-linecap:butt;stroke-linejoin:miter;stroke-miterlimit:4;stroke-dasharray:none;stroke-opacity:1" />
          <path
             sodipodi:nodetypes="czccc"
             id="path1761"
             d="m 443.44478,121.59102 c 0,0 4.734,-3.94745 9.1769,-2.0983 4.44295,1.84899 4.55283,7.8383 4.55283,7.8383 l -21.43013,32.9071 z"
             style="fill:#ffffff;stroke:#ffffff;stroke-width:5.42513;stroke-linecap:butt;stroke-linejoin:miter;stroke-miterlimit:4;stroke-dasharray:none;stroke-opacity:1" />
          <path
             style="fill:#ffffff;stroke:#ffffff;stroke-width:5.42513;stroke-linecap:butt;stroke-linejoin:miter;stroke-miterlimit:4;stroke-dasharray:none;stroke-opacity:1"
             d="m 472.75508,142.92948 c 0,0 6.1387,0.55617 7.97275,5.00532 1.83422,4.44907 -2.32316,8.76185 -2.32316,8.76185 l -38.42223,8.11545 z"
             id="path1763"
             sodipodi:nodetypes="czccc" />
        </g>
        <g
           id="g1777"
           transform="matrix(-1,0,0,1,864.90028,0)"
           style="fill:#ffffff;stroke:#ffffff;stroke-width:5.42513;stroke-miterlimit:4;stroke-dasharray:none;stroke-opacity:1">
          <path
             style="fill:#ffffff;stroke:#ffffff;stroke-width:5.42513;stroke-linecap:butt;stroke-linejoin:miter;stroke-miterlimit:4;stroke-dasharray:none;stroke-opacity:1"
             d="m 424.77478,120.96836 c 0,0 2.86302,-5.45859 7.67536,-5.45042 4.81233,0.008 7.20586,5.49935 7.20586,5.49935 l -7.20586,38.60315 z"
             id="path1767"
             sodipodi:nodetypes="czccc" />
          <path
             sodipodi:nodetypes="czccc"
             id="path1769"
             d="m 479.24281,160.24107 c 0,0 5.45859,2.86302 5.45042,7.67536 -0.008,4.81233 -5.49935,7.20586 -5.49935,7.20586 l -38.60315,-7.20586 z"
             style="fill:#ffffff;stroke:#ffffff;stroke-width:5.42513;stroke-linecap:butt;stroke-linejoin:miter;stroke-miterlimit:4;stroke-dasharray:none;stroke-opacity:1" />
          <path
             sodipodi:nodetypes="czccc"
             id="path1771"
             d="m 460.14583,129.36614 c 0,0 5.88426,-1.83534 9.28132,1.57327 3.39718,3.40849 1.20669,8.98394 1.20669,8.98394 l -32.39186,22.20124 z"
             style="fill:#ffffff;stroke:#ffffff;stroke-width:5.42513;stroke-linecap:butt;stroke-linejoin:miter;stroke-miterlimit:4;stroke-dasharray:none;stroke-opacity:1" />
          <path
             sodipodi:nodetypes="czccc"
             id="path1773"
             d="m 443.44478,121.59102 c 0,0 4.734,-3.94745 9.1769,-2.0983 4.44295,1.84899 4.55283,7.8383 4.55283,7.8383 l -21.43013,32.9071 z"
             style="fill:#ffffff;stroke:#ffffff;stroke-width:5.42513;stroke-linecap:butt;stroke-linejoin:miter;stroke-miterlimit:4;stroke-dasharray:none;stroke-opacity:1" />
          <path
             style="fill:#ffffff;stroke:#ffffff;stroke-width:5.42513;stroke-linecap:butt;stroke-linejoin:miter;stroke-miterlimit:4;stroke-dasharray:none;stroke-opacity:1"
             d="m 472.75508,142.92948 c 0,0 6.1387,0.55617 7.97275,5.00532 1.83422,4.44907 -2.32316,8.76185 -2.32316,8.76185 l -38.42223,8.11545 z"
             id="path1775"
             sodipodi:nodetypes="czccc" />
        </g>
        <path
           sodipodi:nodetypes="czccc"
           id="path1779"
           d="m 385.91223,175.59179 c 0,0 -5.45859,-2.86302 -5.45042,-7.67536 0.008,-4.81233 5.49935,-7.20586 5.49935,-7.20586 l 38.60315,7.20586 z"
           style="fill:#ffffff;stroke:#ffffff;stroke-width:5.42513;stroke-linecap:butt;stroke-linejoin:miter;stroke-miterlimit:4;stroke-dasharray:none;stroke-opacity:1" />
        <path
           sodipodi:nodetypes="czccc"
           id="path1781"
           d="m 405.00921,206.46672 c 0,0 -5.88426,1.83534 -9.28132,-1.57327 -3.39718,-3.40849 -1.20669,-8.98394 -1.20669,-8.98394 l 32.39186,-22.20124 z"
           style="fill:#ffffff;stroke:#ffffff;stroke-width:5.42513;stroke-linecap:butt;stroke-linejoin:miter;stroke-miterlimit:4;stroke-dasharray:none;stroke-opacity:1" />
        <path
           sodipodi:nodetypes="czccc"
           id="path1783"
           d="m 421.87225,213.78508 c 0,0 -4.734,3.94745 -9.1769,2.0983 -4.44295,-1.84899 -4.55283,-7.8383 -4.55283,-7.8383 l 21.43013,-32.9071 z"
           style="fill:#ffffff;stroke:#ffffff;stroke-width:5.42513;stroke-linecap:butt;stroke-linejoin:miter;stroke-miterlimit:4;stroke-dasharray:none;stroke-opacity:1" />
        <path
           style="fill:#ffffff;stroke:#ffffff;stroke-width:5.42513;stroke-linecap:butt;stroke-linejoin:miter;stroke-miterlimit:4;stroke-dasharray:none;stroke-opacity:1"
           d="m 392.39996,192.90338 c 0,0 -6.1387,-0.55617 -7.97275,-5.00532 -1.83422,-4.44907 2.32316,-8.76185 2.32316,-8.76185 l 38.42223,-8.11545 z"
           id="path1785"
           sodipodi:nodetypes="czccc" />
      </g>
      <g
         transform="matrix(2.7649131,0,0,2.7649131,-718.96309,-215.55664)"
         id="g1242"
         style="stroke:none;stroke-width:1.80838;stroke-miterlimit:4;stroke-dasharray:none;stroke-opacity:1">
        <path
           sodipodi:nodetypes="czccc"
           id="path1232"
           d="m 424.77478,120.96836 c 0,0 2.86302,-5.45859 7.67536,-5.45042 4.81233,0.008 7.20586,5.49935 7.20586,5.49935 l -7.20586,38.60315 z"
           style="fill:#000000;stroke:none;stroke-width:1.80838;stroke-linecap:butt;stroke-linejoin:miter;stroke-miterlimit:4;stroke-dasharray:none;stroke-opacity:1" />
        <path
           style="fill:#000000;stroke:none;stroke-width:1.80838;stroke-linecap:butt;stroke-linejoin:miter;stroke-miterlimit:4;stroke-dasharray:none;stroke-opacity:1"
           d="m 479.24281,160.24107 c 0,0 5.45859,2.86302 5.45042,7.67536 -0.008,4.81233 -5.49935,7.20586 -5.49935,7.20586 l -38.60315,-7.20586 z"
           id="path1234"
           sodipodi:nodetypes="czccc" />
        <path
           style="fill:#000000;stroke:none;stroke-width:1.80838;stroke-linecap:butt;stroke-linejoin:miter;stroke-miterlimit:4;stroke-dasharray:none;stroke-opacity:1"
           d="m 460.14583,129.36614 c 0,0 5.88426,-1.83534 9.28132,1.57327 3.39718,3.40849 1.20669,8.98394 1.20669,8.98394 l -32.39186,22.20124 z"
           id="path1236"
           sodipodi:nodetypes="czccc" />
        <path
           style="fill:#000000;stroke:none;stroke-width:1.80838;stroke-linecap:butt;stroke-linejoin:miter;stroke-miterlimit:4;stroke-dasharray:none;stroke-opacity:1"
           d="m 443.44478,121.59102 c 0,0 4.734,-3.94745 9.1769,-2.0983 4.44295,1.84899 4.55283,7.8383 4.55283,7.8383 l -21.43013,32.9071 z"
           id="path1238"
           sodipodi:nodetypes="czccc" />
        <path
           sodipodi:nodetypes="czccc"
           id="path1240"
           d="m 472.75508,142.92948 c 0,0 6.1387,0.55617 7.97275,5.00532 1.83422,4.44907 -2.32316,8.76185 -2.32316,8.76185 l -38.42223,8.11545 z"
           style="fill:#000000;stroke:none;stroke-width:1.80838;stroke-linecap:butt;stroke-linejoin:miter;stroke-miterlimit:4;stroke-dasharray:none;stroke-opacity:1" />
      </g>
      <circle
         style="fill:#000000;fill-opacity:1;stroke:none;stroke-width:6.05678;stroke-miterlimit:4;stroke-dasharray:none;stroke-opacity:1"
         id="circle1244"
         cx="478.09711"
         cy="247.87321"
         r="18.535482" />
      <g
         id="g1256"
         transform="matrix(2.7649131,0,0,-2.7649131,-718.9631,711.61406)"
         style="stroke:none;stroke-width:1.80838;stroke-miterlimit:4;stroke-dasharray:none;stroke-opacity:1">
        <path
           style="fill:#000000;stroke:none;stroke-width:1.80838;stroke-linecap:butt;stroke-linejoin:miter;stroke-miterlimit:4;stroke-dasharray:none;stroke-opacity:1"
           d="m 424.77478,120.96836 c 0,0 2.86302,-5.45859 7.67536,-5.45042 4.81233,0.008 7.20586,5.49935 7.20586,5.49935 l -7.20586,38.60315 z"
           id="path1246"
           sodipodi:nodetypes="czccc" />
        <path
           sodipodi:nodetypes="czccc"
           id="path1248"
           d="m 479.24281,160.24107 c 0,0 5.45859,2.86302 5.45042,7.67536 -0.008,4.81233 -5.49935,7.20586 -5.49935,7.20586 l -38.60315,-7.20586 z"
           style="fill:#000000;stroke:none;stroke-width:1.80838;stroke-linecap:butt;stroke-linejoin:miter;stroke-miterlimit:4;stroke-dasharray:none;stroke-opacity:1" />
        <path
           sodipodi:nodetypes="czccc"
           id="path1250"
           d="m 460.14583,129.36614 c 0,0 5.88426,-1.83534 9.28132,1.57327 3.39718,3.40849 1.20669,8.98394 1.20669,8.98394 l -32.39186,22.20124 z"
           style="fill:#000000;stroke:none;stroke-width:1.80838;stroke-linecap:butt;stroke-linejoin:miter;stroke-miterlimit:4;stroke-dasharray:none;stroke-opacity:1" />
        <path
           sodipodi:nodetypes="czccc"
           id="path1252"
           d="m 443.44478,121.59102 c 0,0 4.734,-3.94745 9.1769,-2.0983 4.44295,1.84899 4.55283,7.8383 4.55283,7.8383 l -21.43013,32.9071 z"
           style="fill:#000000;stroke:none;stroke-width:1.80838;stroke-linecap:butt;stroke-linejoin:miter;stroke-miterlimit:4;stroke-dasharray:none;stroke-opacity:1" />
        <path
           style="fill:#000000;stroke:none;stroke-width:1.80838;stroke-linecap:butt;stroke-linejoin:miter;stroke-miterlimit:4;stroke-dasharray:none;stroke-opacity:1"
           d="m 472.75508,142.92948 c 0,0 6.1387,0.55617 7.97275,5.00532 1.83422,4.44907 -2.32316,8.76185 -2.32316,8.76185 l -38.42223,8.11545 z"
           id="path1254"
           sodipodi:nodetypes="czccc" />
      </g>
      <g
         id="g1268"
         transform="matrix(-2.7649131,0,0,2.7649131,1672.411,-215.55664)"
         style="stroke:none;stroke-width:1.80838;stroke-miterlimit:4;stroke-dasharray:none;stroke-opacity:1">
        <path
           style="fill:#000000;stroke:none;stroke-width:1.80838;stroke-linecap:butt;stroke-linejoin:miter;stroke-miterlimit:4;stroke-dasharray:none;stroke-opacity:1"
           d="m 424.77478,120.96836 c 0,0 2.86302,-5.45859 7.67536,-5.45042 4.81233,0.008 7.20586,5.49935 7.20586,5.49935 l -7.20586,38.60315 z"
           id="path1258"
           sodipodi:nodetypes="czccc" />
        <path
           sodipodi:nodetypes="czccc"
           id="path1260"
           d="m 479.24281,160.24107 c 0,0 5.45859,2.86302 5.45042,7.67536 -0.008,4.81233 -5.49935,7.20586 -5.49935,7.20586 l -38.60315,-7.20586 z"
           style="fill:#000000;stroke:none;stroke-width:1.80838;stroke-linecap:butt;stroke-linejoin:miter;stroke-miterlimit:4;stroke-dasharray:none;stroke-opacity:1" />
        <path
           sodipodi:nodetypes="czccc"
           id="path1262"
           d="m 460.14583,129.36614 c 0,0 5.88426,-1.83534 9.28132,1.57327 3.39718,3.40849 1.20669,8.98394 1.20669,8.98394 l -32.39186,22.20124 z"
           style="fill:#000000;stroke:none;stroke-width:1.80838;stroke-linecap:butt;stroke-linejoin:miter;stroke-miterlimit:4;stroke-dasharray:none;stroke-opacity:1" />
        <path
           sodipodi:nodetypes="czccc"
           id="path1264"
           d="m 443.44478,121.59102 c 0,0 4.734,-3.94745 9.1769,-2.0983 4.44295,1.84899 4.55283,7.8383 4.55283,7.8383 l -21.43013,32.9071 z"
           style="fill:#000000;stroke:none;stroke-width:1.80838;stroke-linecap:butt;stroke-linejoin:miter;stroke-miterlimit:4;stroke-dasharray:none;stroke-opacity:1" />
        <path
           style="fill:#000000;stroke:none;stroke-width:1.80838;stroke-linecap:butt;stroke-linejoin:miter;stroke-miterlimit:4;stroke-dasharray:none;stroke-opacity:1"
           d="m 472.75508,142.92948 c 0,0 6.1387,0.55617 7.97275,5.00532 1.83422,4.44907 -2.32316,8.76185 -2.32316,8.76185 l -38.42223,8.11545 z"
           id="path1266"
           sodipodi:nodetypes="czccc" />
      </g>
      <path
         sodipodi:nodetypes="czccc"
         id="path1270"
         d="m 348.05069,269.9394 c 0,0 -15.09253,-7.916 -15.06994,-21.2217 0.0221,-13.30568 15.20523,-19.92358 15.20523,-19.92358 l 106.73435,19.92358 z"
         style="fill:#000000;stroke:none;stroke-width:5.00001;stroke-linecap:butt;stroke-linejoin:miter;stroke-miterlimit:4;stroke-dasharray:none;stroke-opacity:1" />
      <path
         sodipodi:nodetypes="czccc"
         id="path1272"
         d="m 400.85218,355.3059 c 0,0 -16.26947,5.07455 -25.66204,-4.34996 -9.39291,-9.42417 -3.3364,-24.83981 -3.3364,-24.83981 l 89.56068,-61.3845 z"
         style="fill:#000000;stroke:none;stroke-width:5.00001;stroke-linecap:butt;stroke-linejoin:miter;stroke-miterlimit:4;stroke-dasharray:none;stroke-opacity:1" />
      <path
         sodipodi:nodetypes="czccc"
         id="path1274"
         d="m 447.47702,375.54053 c 0,0 -13.0891,10.91435 -25.37333,5.80162 -12.28437,-5.1123 -12.58818,-21.67222 -12.58818,-21.67222 l 59.25245,-90.98527 z"
         style="fill:#000000;stroke:none;stroke-width:5.00001;stroke-linecap:butt;stroke-linejoin:miter;stroke-miterlimit:4;stroke-dasharray:none;stroke-opacity:1" />
      <path
         style="fill:#000000;stroke:none;stroke-width:5.00001;stroke-linecap:butt;stroke-linejoin:miter;stroke-miterlimit:4;stroke-dasharray:none;stroke-opacity:1"
         d="m 365.9887,317.80444 c 0,0 -16.97297,-1.53776 -22.04396,-13.83927 -5.07146,-12.30129 6.42333,-24.22576 6.42333,-24.22576 L 456.6022,257.3009 Z"
         id="path1276"
         sodipodi:nodetypes="czccc" />
    </g>
  </g>
</svg>
